<svg xmlns="http://www.w3.org/2000/svg" viewBox="0 0 132 54"><defs><style>.a{fill:#1a1a1a;}.b,.c{fill:#fff;}.c{stroke:#000;stroke-miterlimit:10;stroke-width:0.25px;}</style></defs><rect class="a" x="13" y="23" width="9" height="35" rx="0.2" transform="translate(-23 58) rotate(-90)"/><path class="b" d="M0,45V36.2A.2.2,0,0,1,.2,36H34.8a.2.2,0,0,1,.2.2v8.6a.2.2,0,0,1-.2.2H0m0,0H34.8a.2.2,0,0,0,.2-.2V36.2a.2.2,0,0,0-.2-.2H.2a.2.2,0,0,0-.2.2V45Z"/><rect class="b" x="36" y="19" width="96" height="35"/><path d="M36,54V19h96V54H36m0,0h96V19H36V54Z"/><rect class="a" x="9" width="9" height="35" rx="0.21" transform="translate(27 35) rotate(-180)"/><path class="b" d="M9,35V.21A.21.21,0,0,1,9.21,0h8.58A.21.21,0,0,1,18,.21V34.79a.21.21,0,0,1-.21.21H9m0,0h8.79a.21.21,0,0,0,.21-.21V.21A.21.21,0,0,0,17.79,0H9.21A.21.21,0,0,0,9,.21V35Z"/><rect class="a" x="123" y="19" width="9" height="35" rx="0.21" transform="translate(255 73) rotate(-180)"/><path class="b" d="M123,54V19.21a.21.21,0,0,1,.21-.21h8.58a.21.21,0,0,1,.21.21V53.79a.21.21,0,0,1-.21.21H123m0,0h8.79a.21.21,0,0,0,.21-.21V19.21a.21.21,0,0,0-.21-.21h-8.58a.21.21,0,0,0-.21.21V54Z"/><rect class="a" x="32" y="-4" width="9" height="35" rx="0.21" transform="translate(50 -23) rotate(90)"/><path class="b" d="M19,18V9.21A.21.21,0,0,1,19.21,9H53.79a.21.21,0,0,1,.21.21v8.58a.21.21,0,0,1-.21.21H19m0,0H53.79a.21.21,0,0,0,.21-.21V9.21A.21.21,0,0,0,53.79,9H19.21a.21.21,0,0,0-.21.21V18Z"/><path d="M42.31,32.58H40.75a.19.19,0,0,1-.2-.19V21.32a.2.2,0,0,1,.2-.2h7.09a.2.2,0,0,1,.2.2v1.41a.2.2,0,0,1-.2.2H42.71a.2.2,0,0,0-.2.2v2.54a.2.2,0,0,0,.2.2h4.86a.2.2,0,0,1,.2.2v1.41a.2.2,0,0,1-.2.2H42.71a.19.19,0,0,0-.2.19v4.52A.19.19,0,0,1,42.31,32.58Z"/><path d="M54.92,29V24.4a.19.19,0,0,1,.2-.19h1.52a.19.19,0,0,1,.2.19v8a.19.19,0,0,1-.2.19H55.07V31.5a2.26,2.26,0,0,1-1,.91,3.16,3.16,0,0,1-1.6.37,2.9,2.9,0,0,1-2.29-.9,3.5,3.5,0,0,1-.8-2.4V24.4a.19.19,0,0,1,.2-.19h1.52a.19.19,0,0,1,.2.19v4.83c0,1.27.55,1.9,1.63,1.9a1.85,1.85,0,0,0,1.42-.54A2.15,2.15,0,0,0,54.92,29Z"/><path d="M60.94,24.21v1.11a2.39,2.39,0,0,1,1-.93A3.3,3.3,0,0,1,63.53,24a2.93,2.93,0,0,1,2.3.91,3.45,3.45,0,0,1,.81,2.4v5.07a.19.19,0,0,1-.19.19H64.92a.19.19,0,0,1-.2-.19V27.56a2.17,2.17,0,0,0-.41-1.39,1.52,1.52,0,0,0-1.25-.51,1.89,1.89,0,0,0-1.45.55,2.08,2.08,0,0,0-.52,1.51v4.67a.19.19,0,0,1-.2.19H59.36a.18.18,0,0,1-.19-.19v-8a.18.18,0,0,1,.19-.19Z"/><path d="M72.52,31.08a2.12,2.12,0,0,0,1.31-.42,2,2,0,0,0,.67-.93.2.2,0,0,1,.23-.14l1.45.36a.2.2,0,0,1,.14.26A4,4,0,0,1,75.06,32a3.83,3.83,0,0,1-2.53.79,3.91,3.91,0,0,1-3-1.27,4.7,4.7,0,0,1,0-6.23,4.31,4.31,0,0,1,5.53-.49,4.1,4.1,0,0,1,1.26,1.78.21.21,0,0,1-.14.27l-1.45.36a.2.2,0,0,1-.23-.14,2,2,0,0,0-.67-.93,2.12,2.12,0,0,0-1.31-.42,2,2,0,0,0-1.63.75,3.35,3.35,0,0,0,0,3.88A2,2,0,0,0,72.52,31.08Z"/><path d="M81.8,30.87v1.67a4.31,4.31,0,0,1-1,.09,2.17,2.17,0,0,1-2.45-2.47V25.74H77.07V24.21h1.28v-2a.18.18,0,0,1,.19-.19h1.53a.19.19,0,0,1,.2.19V24a.2.2,0,0,0,.19.2h1.18a.18.18,0,0,1,.19.19v1.14a.19.19,0,0,1-.19.2H80.46a.2.2,0,0,0-.19.2v4c0,.66.31,1,.93,1Z"/><path d="M84.33,22.8a1.21,1.21,0,0,1-.87-.33,1.15,1.15,0,0,1-.34-.85,1.22,1.22,0,0,1,.34-.87,1.18,1.18,0,0,1,.87-.34,1.15,1.15,0,0,1,.86.34,1.18,1.18,0,0,1,.34.87,1.12,1.12,0,0,1-.34.85A1.18,1.18,0,0,1,84.33,22.8Zm-1,9.58v-8a.2.2,0,0,1,.2-.2h1.51a.2.2,0,0,1,.21.2v8a.2.2,0,0,1-.21.2H83.57A.2.2,0,0,1,83.37,32.38Z"/><path d="M91.41,32.78a4.12,4.12,0,0,1-3.14-1.28,4.32,4.32,0,0,1-1.21-3.1,4.37,4.37,0,0,1,1.21-3.11,4.5,4.5,0,0,1,6.29,0,4.42,4.42,0,0,1,1.21,3.11,4.36,4.36,0,0,1-1.21,3.1A4.13,4.13,0,0,1,91.41,32.78ZM89,28.4a2.74,2.74,0,0,0,.69,1.94,2.43,2.43,0,0,0,3.49,0,3.12,3.12,0,0,0,0-3.89,2.43,2.43,0,0,0-3.49,0A2.75,2.75,0,0,0,89,28.4Z"/><path d="M99.32,24.21v1.11a2.27,2.27,0,0,1,1-.93A3.24,3.24,0,0,1,101.9,24a2.91,2.91,0,0,1,2.3.91,3.45,3.45,0,0,1,.81,2.4v5.06a.2.2,0,0,1-.2.2H103.3a.21.21,0,0,1-.21-.2V27.56a2.11,2.11,0,0,0-.41-1.39,1.5,1.5,0,0,0-1.25-.51,1.88,1.88,0,0,0-1.44.55,2.09,2.09,0,0,0-.53,1.51v4.66a.2.2,0,0,1-.2.2H97.74a.2.2,0,0,1-.2-.2v-8a.2.2,0,0,1,.2-.2Z"/><path d="M109.75,32.78a3.09,3.09,0,0,1-2.21-.7,2.4,2.4,0,0,1-.73-1.84c0-1.48,1.07-2.38,3.21-2.68l2.42-.35v-.12c0-1-.6-1.5-1.79-1.5s-1.64.43-1.78,1.28l-1.62-.27a.21.21,0,0,1-.17-.26,3,3,0,0,1,1.06-1.62A4.06,4.06,0,0,1,110.7,24a4,4,0,0,1,2.7.82,3,3,0,0,1,.91,2.31v3.38a.49.49,0,0,0,.55.56H115v1.55a2.56,2.56,0,0,1-.61.06,2,2,0,0,1-1.11-.3,1.65,1.65,0,0,1-.63-.72A3.59,3.59,0,0,1,109.75,32.78Zm2.69-4.1-2.22.37a2.58,2.58,0,0,0-1.21.43.94.94,0,0,0-.33.75c0,.7.48,1.05,1.45,1.05a2.28,2.28,0,0,0,1.71-.6,2,2,0,0,0,.6-1.49Z"/><path d="M118.43,32.58h-1.5a.21.21,0,0,1-.21-.21V20.69a.21.21,0,0,1,.21-.21h1.5a.21.21,0,0,1,.21.21V32.37A.21.21,0,0,1,118.43,32.58Z"/><path d="M40,46.55l1.42-.29a.28.28,0,0,1,.33.24,1.89,1.89,0,0,0,.66,1.2,2.56,2.56,0,0,0,1.76.55A3.34,3.34,0,0,0,46,47.84a1.32,1.32,0,0,0,.65-1.18,1.27,1.27,0,0,0-.35-.92,1.92,1.92,0,0,0-.92-.51l-1.22-.33-1.33-.37A5,5,0,0,1,41.59,44a2.39,2.39,0,0,1-.9-1,3.34,3.34,0,0,1-.35-1.59,3.09,3.09,0,0,1,1.13-2.4,5,5,0,0,1,5.9,0,3.55,3.55,0,0,1,1.2,2.27.22.22,0,0,1-.17.24l-1.47.28a.23.23,0,0,1-.26-.2,1.9,1.9,0,0,0-.58-1.21,2.27,2.27,0,0,0-1.65-.57,2.75,2.75,0,0,0-1.59.41,1.36,1.36,0,0,0-.57,1.17,1.07,1.07,0,0,0,.35.82,2,2,0,0,0,.92.49l1.24.34,1.35.36a5,5,0,0,1,1.24.54,2.49,2.49,0,0,1,.91,1,1.46,1.46,0,0,1,.16.36,3.45,3.45,0,0,1-1.85,4.2,6,6,0,0,1-2.51.47A4.31,4.31,0,0,1,41,49a3.82,3.82,0,0,1-1.19-2.25A.22.22,0,0,1,40,46.55Z"/><path d="M52.55,49.26v3.68a.21.21,0,0,1-.2.21H50.83a.21.21,0,0,1-.2-.21V41.61a.2.2,0,0,1,.2-.2H52.4V42.6a3.13,3.13,0,0,1,2.83-1.38,3.54,3.54,0,0,1,2.85,1.25,4.79,4.79,0,0,1,1,3.14,4.74,4.74,0,0,1-1,3.12A3.54,3.54,0,0,1,55.23,50a3.1,3.1,0,0,1-2.34-.86A.2.2,0,0,0,52.55,49.26Zm-.07-3.65a2.93,2.93,0,0,0,.64,1.92,2.16,2.16,0,0,0,1.72.76,2.13,2.13,0,0,0,1.71-.77,2.87,2.87,0,0,0,.65-1.91,3,3,0,0,0-.65-2,2.13,2.13,0,0,0-1.71-.77,2.11,2.11,0,0,0-1.72.77A3,3,0,0,0,52.48,45.61Z"/><path d="M63.36,50a3.1,3.1,0,0,1-2.2-.69,2.43,2.43,0,0,1-.73-1.84c0-1.49,1.07-2.38,3.21-2.69l2.42-.35V44.3c0-1-.6-1.5-1.79-1.5s-1.64.42-1.78,1.27l-1.63-.27a.2.2,0,0,1-.16-.24,3,3,0,0,1,1.06-1.64,4,4,0,0,1,2.56-.7A3.91,3.91,0,0,1,67,42a3,3,0,0,1,.91,2.31v3.37a.5.5,0,0,0,.55.57l.16,0v1.55a2.56,2.56,0,0,1-.61.06,2,2,0,0,1-1.11-.3,1.47,1.47,0,0,1-.63-.71A3.63,3.63,0,0,1,63.36,50Zm2.7-4.1-2.23.37a2.58,2.58,0,0,0-1.2.43,1,1,0,0,0-.33.75c0,.7.48,1,1.45,1a2.35,2.35,0,0,0,1.71-.59,2,2,0,0,0,.6-1.5Z"/><path d="M74,48.29a2.08,2.08,0,0,0,1.31-.42,2,2,0,0,0,.68-.94.18.18,0,0,1,.22-.13l1.45.35a.21.21,0,0,1,.15.27A4.1,4.1,0,0,1,76.5,49.2,4.31,4.31,0,0,1,71,48.71a4.36,4.36,0,0,1-1.18-3.1A4.42,4.42,0,0,1,71,42.48,4.33,4.33,0,0,1,76.5,42a4,4,0,0,1,1.26,1.78.2.2,0,0,1-.15.26l-1.45.36a.18.18,0,0,1-.22-.13,2,2,0,0,0-.68-.94A2.08,2.08,0,0,0,74,42.91a2,2,0,0,0-1.63.75,3,3,0,0,0-.61,2,3,3,0,0,0,.61,1.93A2,2,0,0,0,74,48.29Z"/><path d="M85.17,47.08l1.34.35a.22.22,0,0,1,.14.29,3.77,3.77,0,0,1-1.37,1.59,4.13,4.13,0,0,1-2.35.67,3.94,3.94,0,0,1-3-1.24,4.83,4.83,0,0,1,0-6.27,3.94,3.94,0,0,1,3-1.25,3.87,3.87,0,0,1,3,1.23A4.4,4.4,0,0,1,87,45.56l0,.59H80.64a2.51,2.51,0,0,0,.72,1.59,2.21,2.21,0,0,0,1.62.59,2,2,0,0,0,2-1.14A.22.22,0,0,1,85.17,47.08Zm-2.26-4.3a2.2,2.2,0,0,0-1.5.53,2.36,2.36,0,0,0-.74,1.42h4.46a2.38,2.38,0,0,0-.71-1.42A2.17,2.17,0,0,0,82.91,42.78Z"/><rect class="c" x="20" y="20" width="13" height="13" rx="0.2" transform="translate(53 0) rotate(90)"/><path class="c" d="M20.2,20H32.8a.2.2,0,0,1,.2.2V32.8a.2.2,0,0,1-.2.2H20.2a.2.2,0,0,1-.2-.2V20.2A.2.2,0,0,1,20.2,20Zm12.6,0H20.2a.2.2,0,0,0-.2.2V32.8a.2.2,0,0,0,.2.2H32.8a.2.2,0,0,0,.2-.2V20.2A.2.2,0,0,0,32.8,20Z"/></svg>