<?xml version="1.0" encoding="utf-8"?>
<!-- Generator: Adobe Illustrator 26.0.2, SVG Export Plug-In . SVG Version: 6.00 Build 0)  -->
<svg version="1.1" id="Layer_1" xmlns="http://www.w3.org/2000/svg" xmlns:xlink="http://www.w3.org/1999/xlink" x="0px" y="0px"
	 viewBox="0 0 92.3 29.8" style="enable-background:new 0 0 92.3 29.8;" xml:space="preserve">
<style type="text/css">
	.st0{fill:#1A1A1A;}
	.st1{fill:#FFFFFF;}
	.st2{fill:#FFFFFF;stroke:#000000;stroke-width:0.25;stroke-miterlimit:10;}
</style>
<g>
	<path class="st0" d="M0,20.1l0,4.6c0,0.1,0.1,0.2,0.2,0.2l18.9,0c0.1,0,0.2-0.1,0.2-0.2v-4.6c0-0.1-0.1-0.2-0.2-0.2l-18.9,0
		C0.1,19.9,0,20,0,20.1z"/>
	<path class="st1" d="M0,24.8L0,20c0-0.1,0-0.1,0.1-0.1h19.1c0.1,0,0.1,0,0.1,0.1v4.7c0,0.1,0,0.1-0.1,0.1L0,24.8 M0,24.8h19.2
		c0.1,0,0.1,0,0.1-0.1V20c0-0.1,0-0.1-0.1-0.1l-19.1,0C0,19.9,0,19.9,0,20L0,24.8L0,24.8z"/>
</g>
<g>
	<rect x="19.9" y="10.5" class="st1" width="53" height="19.3"/>
	<path d="M19.9,29.8l0-19.3h53l0,19.3H19.9 M19.9,29.8h53l0-19.3l-53,0L19.9,29.8L19.9,29.8z"/>
</g>
<g>
	<path class="st0" d="M5.2,19.3h4.6c0.1,0,0.2-0.1,0.2-0.2l0-18.9C9.9,0.1,9.8,0,9.7,0L5.2,0C5.1,0,5,0.1,5,0.2l0,18.9
		C5,19.2,5.1,19.3,5.2,19.3z"/>
	<path class="st1" d="M5,19.3L5,0.1C5,0.1,5,0,5.1,0l4.7,0c0.1,0,0.1,0.1,0.1,0.1l0,19.1c0,0.1-0.1,0.1-0.1,0.1H5 M5,19.3h4.9
		c0.1,0,0.1-0.1,0.1-0.1l0-19.1C9.9,0.1,9.9,0,9.8,0L5.1,0C5,0,5,0.1,5,0.1L5,19.3L5,19.3z"/>
</g>
<g>
	<path class="st0" d="M68.1,29.8h4.6c0.1,0,0.2-0.1,0.2-0.2V10.7c0-0.1-0.1-0.2-0.2-0.2h-4.6c-0.1,0-0.2,0.1-0.2,0.2v18.9
		C67.9,29.7,68,29.8,68.1,29.8z"/>
	<path class="st1" d="M67.9,29.8V10.6c0-0.1,0.1-0.1,0.1-0.1h4.7c0.1,0,0.1,0.1,0.1,0.1v19.1c0,0.1-0.1,0.1-0.1,0.1H67.9 M67.9,29.8
		h4.9c0.1,0,0.1-0.1,0.1-0.1V10.6c0-0.1-0.1-0.1-0.1-0.1l-4.7,0c-0.1,0-0.1,0.1-0.1,0.1V29.8L67.9,29.8z"/>
</g>
<g>
	<path class="st0" d="M29.8,9.7V5.2c0-0.1-0.1-0.2-0.2-0.2L10.7,5c-0.1,0-0.2,0.1-0.2,0.2l0,4.5c0,0.1,0.1,0.2,0.2,0.2l18.9,0
		C29.7,9.9,29.8,9.8,29.8,9.7z"/>
	<path class="st1" d="M10.5,9.9l0-4.8C10.5,5,10.5,5,10.6,5l19.1,0c0.1,0,0.1,0.1,0.1,0.1v4.7c0,0.1-0.1,0.1-0.1,0.1L10.5,9.9
		 M10.5,9.9l19.2,0c0.1,0,0.1-0.1,0.1-0.1V5.1C29.8,5,29.7,5,29.7,5L10.6,5c-0.1,0-0.1,0.1-0.1,0.1V9.9L10.5,9.9z"/>
</g>
<g>
	<path d="M23.3,18h-0.9c-0.1,0-0.1,0-0.1-0.1v-6.1c0-0.1,0-0.1,0.1-0.1h3.9c0.1,0,0.1,0,0.1,0.1v0.8c0,0.1,0,0.1-0.1,0.1h-2.8
		c-0.1,0-0.1,0-0.1,0.1v1.4c0,0.1,0,0.1,0.1,0.1h2.7c0.1,0,0.1,0,0.1,0.1v0.8c0,0.1,0,0.1-0.1,0.1h-2.7c-0.1,0-0.1,0-0.1,0.1v2.5
		C23.5,17.9,23.4,18,23.3,18z"/>
	<path d="M30.3,16v-2.6c0-0.1,0-0.1,0.1-0.1h0.8c0.1,0,0.1,0,0.1,0.1v4.4c0,0.1,0,0.1-0.1,0.1h-0.9v-0.6c-0.1,0.2-0.3,0.4-0.5,0.5
		s-0.5,0.2-0.9,0.2c-0.5,0-1-0.2-1.3-0.5c-0.3-0.3-0.4-0.8-0.4-1.3v-2.8c0-0.1,0-0.1,0.1-0.1h0.8c0.1,0,0.1,0,0.1,0.1v2.7
		c0,0.7,0.3,1.1,0.9,1.1c0.3,0,0.6-0.1,0.8-0.3C30.2,16.7,30.3,16.4,30.3,16z"/>
	<path d="M33.6,13.4V14c0.1-0.2,0.3-0.4,0.5-0.5c0.2-0.1,0.5-0.2,0.9-0.2c0.5,0,1,0.2,1.3,0.5c0.3,0.3,0.4,0.8,0.4,1.3v2.8
		c0,0.1,0,0.1-0.1,0.1h-0.8c-0.1,0-0.1,0-0.1-0.1v-2.7c0-0.3-0.1-0.6-0.2-0.8c-0.2-0.2-0.4-0.3-0.7-0.3c-0.3,0-0.6,0.1-0.8,0.3
		c-0.2,0.2-0.3,0.5-0.3,0.8v2.6c0,0.1,0,0.1-0.1,0.1h-0.8c-0.1,0-0.1,0-0.1-0.1v-4.4c0-0.1,0-0.1,0.1-0.1H33.6z"/>
	<path d="M40,17.2c0.3,0,0.5-0.1,0.7-0.2c0.2-0.1,0.3-0.3,0.4-0.5c0-0.1,0.1-0.1,0.1-0.1l0.8,0.2c0.1,0,0.1,0.1,0.1,0.1
		c-0.1,0.4-0.4,0.7-0.7,1c-0.4,0.3-0.8,0.4-1.4,0.4c-0.7,0-1.2-0.2-1.7-0.7c-0.4-0.5-0.7-1-0.7-1.7c0-0.7,0.2-1.3,0.7-1.7
		c0.4-0.5,1-0.7,1.7-0.7c0.6,0,1,0.1,1.4,0.4c0.3,0.3,0.6,0.6,0.7,1c0,0.1,0,0.1-0.1,0.1L41.2,15c-0.1,0-0.1,0-0.1-0.1
		c-0.1-0.2-0.2-0.4-0.4-0.5c-0.2-0.2-0.4-0.2-0.7-0.2c-0.4,0-0.7,0.1-0.9,0.4c-0.2,0.3-0.3,0.6-0.3,1.1c0,0.4,0.1,0.8,0.3,1.1
		C39.3,17,39.6,17.2,40,17.2z"/>
	<path d="M45.1,17V18C45,18,44.8,18,44.6,18c-0.9,0-1.4-0.5-1.4-1.4v-2.4h-0.7v-0.8h0.7v-1.1c0-0.1,0-0.1,0.1-0.1h0.8
		c0.1,0,0.1,0,0.1,0.1v1c0,0.1,0,0.1,0.1,0.1H45c0.1,0,0.1,0,0.1,0.1v0.6c0,0.1,0,0.1-0.1,0.1h-0.6c-0.1,0-0.1,0-0.1,0.1v2.2
		c0,0.4,0.2,0.5,0.5,0.5L45.1,17z"/>
	<path d="M46.5,12.6c-0.2,0-0.4-0.1-0.5-0.2c-0.1-0.1-0.2-0.3-0.2-0.5c0-0.2,0.1-0.4,0.2-0.5c0.1-0.1,0.3-0.2,0.5-0.2
		c0.2,0,0.3,0.1,0.5,0.2c0.1,0.1,0.2,0.3,0.2,0.5c0,0.2-0.1,0.3-0.2,0.5C46.9,12.5,46.7,12.6,46.5,12.6z M46,17.9v-4.4
		c0-0.1,0.1-0.1,0.1-0.1h0.8c0.1,0,0.1,0.1,0.1,0.1v4.4c0,0.1-0.1,0.1-0.1,0.1h-0.8C46,18,46,17.9,46,17.9z"/>
	<path d="M50.4,18.1c-0.7,0-1.3-0.2-1.7-0.7c-0.4-0.5-0.7-1-0.7-1.7c0-0.7,0.2-1.2,0.7-1.7c0.4-0.5,1-0.7,1.7-0.7
		c0.7,0,1.3,0.2,1.7,0.7s0.7,1,0.7,1.7c0,0.7-0.2,1.2-0.7,1.7S51.2,18.1,50.4,18.1z M49.1,15.7c0,0.4,0.1,0.8,0.4,1.1
		c0.3,0.3,0.6,0.4,1,0.4c0.4,0,0.7-0.1,1-0.4c0.3-0.3,0.4-0.6,0.4-1.1c0-0.4-0.1-0.8-0.4-1.1c-0.3-0.3-0.6-0.4-1-0.4
		c-0.4,0-0.7,0.1-1,0.4C49.2,14.9,49.1,15.2,49.1,15.7z"/>
	<path d="M54.8,13.4V14c0.1-0.2,0.3-0.4,0.5-0.5c0.2-0.1,0.5-0.2,0.9-0.2c0.5,0,1,0.2,1.3,0.5c0.3,0.3,0.4,0.8,0.4,1.3v2.8
		c0,0.1-0.1,0.1-0.1,0.1H57c-0.1,0-0.1-0.1-0.1-0.1v-2.7c0-0.3-0.1-0.6-0.2-0.8c-0.2-0.2-0.4-0.3-0.7-0.3c-0.3,0-0.6,0.1-0.8,0.3
		c-0.2,0.2-0.3,0.5-0.3,0.8v2.6c0,0.1-0.1,0.1-0.1,0.1h-0.8c-0.1,0-0.1-0.1-0.1-0.1v-4.4c0-0.1,0.1-0.1,0.1-0.1H54.8z"/>
	<path d="M60.6,18.1c-0.5,0-0.9-0.1-1.2-0.4c-0.3-0.3-0.4-0.6-0.4-1c0-0.8,0.6-1.3,1.8-1.5L62,15V15c0-0.6-0.3-0.8-1-0.8
		c-0.6,0-0.9,0.2-1,0.7l-0.9-0.1c-0.1,0-0.1-0.1-0.1-0.1c0.1-0.4,0.3-0.7,0.6-0.9c0.3-0.3,0.8-0.4,1.4-0.4c0.7,0,1.2,0.2,1.5,0.5
		c0.3,0.3,0.5,0.7,0.5,1.3v1.9c0,0.2,0.1,0.3,0.3,0.3l0.1,0V18c-0.1,0-0.2,0-0.3,0c-0.2,0-0.4-0.1-0.6-0.2c-0.2-0.1-0.3-0.2-0.3-0.4
		C61.8,17.9,61.3,18.1,60.6,18.1z M62,15.8L60.8,16c-0.3,0.1-0.5,0.1-0.7,0.2C60,16.4,60,16.5,60,16.7c0,0.4,0.3,0.6,0.8,0.6
		c0.4,0,0.7-0.1,0.9-0.3c0.2-0.2,0.3-0.5,0.3-0.8V15.8z"/>
	<path d="M65.3,18h-0.8c-0.1,0-0.1-0.1-0.1-0.1v-6.4c0-0.1,0.1-0.1,0.1-0.1h0.8c0.1,0,0.1,0.1,0.1,0.1v6.4
		C65.5,17.9,65.4,18,65.3,18z"/>
	<path d="M22.1,25.7l0.8-0.2c0.1,0,0.2,0,0.2,0.1c0,0.3,0.2,0.5,0.4,0.7c0.2,0.2,0.6,0.3,1,0.3c0.4,0,0.8-0.1,1-0.2
		c0.2-0.2,0.4-0.4,0.4-0.7c0-0.2-0.1-0.4-0.2-0.5C25.4,25.1,25.3,25,25,25c-0.2-0.1-0.4-0.1-0.7-0.2s-0.5-0.1-0.7-0.2
		c-0.3-0.1-0.5-0.2-0.7-0.3s-0.4-0.3-0.5-0.5c-0.1-0.2-0.2-0.5-0.2-0.9c0-0.5,0.2-1,0.6-1.3c0.4-0.4,1-0.5,1.6-0.5
		c0.7,0,1.2,0.2,1.6,0.5c0.4,0.3,0.6,0.7,0.7,1.3c0,0.1,0,0.1-0.1,0.1l-0.8,0.2c-0.1,0-0.1,0-0.1-0.1c0-0.3-0.1-0.5-0.3-0.7
		c-0.2-0.2-0.5-0.3-0.9-0.3c-0.4,0-0.7,0.1-0.9,0.2c-0.2,0.2-0.3,0.4-0.3,0.6c0,0.2,0.1,0.3,0.2,0.5c0.1,0.1,0.3,0.2,0.5,0.3
		c0.2,0.1,0.4,0.1,0.7,0.2c0.2,0.1,0.5,0.1,0.7,0.2c0.3,0.1,0.5,0.2,0.7,0.3c0.2,0.1,0.4,0.3,0.5,0.6c0,0.1,0.1,0.1,0.1,0.2
		c0.3,0.9-0.2,1.9-1,2.3c-0.4,0.2-0.8,0.3-1.4,0.3c-0.7,0-1.3-0.2-1.7-0.5c-0.4-0.3-0.6-0.7-0.7-1.2C22,25.8,22,25.7,22.1,25.7z"/>
	<path d="M29,27.2v2c0,0.1-0.1,0.1-0.1,0.1H28c-0.1,0-0.1-0.1-0.1-0.1V23c0-0.1,0.1-0.1,0.1-0.1h0.9v0.7c0.3-0.5,0.8-0.8,1.6-0.8
		c0.7,0,1.2,0.2,1.6,0.7c0.4,0.5,0.6,1,0.6,1.7s-0.2,1.3-0.6,1.7c-0.4,0.5-0.9,0.7-1.6,0.7c-0.6,0-1-0.2-1.3-0.5
		C29.1,27,29,27.1,29,27.2z M29,25.2c0,0.4,0.1,0.8,0.4,1.1c0.2,0.3,0.6,0.4,0.9,0.4c0.4,0,0.7-0.1,0.9-0.4c0.2-0.3,0.4-0.6,0.4-1.1
		c0-0.4-0.1-0.8-0.4-1.1c-0.2-0.3-0.6-0.4-0.9-0.4c-0.4,0-0.7,0.1-0.9,0.4C29.1,24.4,29,24.7,29,25.2z"/>
	<path d="M35,27.6c-0.5,0-0.9-0.1-1.2-0.4c-0.3-0.3-0.4-0.6-0.4-1c0-0.8,0.6-1.3,1.8-1.5l1.3-0.2v-0.1c0-0.6-0.3-0.8-1-0.8
		c-0.6,0-0.9,0.2-1,0.7l-0.9-0.2c-0.1,0-0.1-0.1-0.1-0.1c0.1-0.4,0.3-0.7,0.6-0.9c0.3-0.3,0.8-0.4,1.4-0.4c0.7,0,1.2,0.2,1.5,0.5
		c0.3,0.3,0.5,0.7,0.5,1.3v1.9c0,0.2,0.1,0.3,0.3,0.3l0.1,0v0.9c-0.1,0-0.2,0-0.3,0c-0.2,0-0.4-0.1-0.6-0.2
		c-0.2-0.1-0.3-0.2-0.3-0.4C36.2,27.4,35.7,27.6,35,27.6z M36.4,25.3l-1.2,0.2c-0.3,0.1-0.5,0.1-0.7,0.2c-0.1,0.1-0.2,0.2-0.2,0.4
		c0,0.4,0.3,0.6,0.8,0.6c0.4,0,0.7-0.1,0.9-0.3c0.2-0.2,0.3-0.5,0.3-0.8V25.3z"/>
	<path d="M40.8,26.6c0.3,0,0.5-0.1,0.7-0.2c0.2-0.1,0.3-0.3,0.4-0.5c0-0.1,0.1-0.1,0.1-0.1l0.8,0.2c0.1,0,0.1,0.1,0.1,0.1
		c-0.1,0.4-0.4,0.7-0.7,1c-0.4,0.3-0.8,0.4-1.4,0.4c-0.7,0-1.2-0.2-1.7-0.7c-0.4-0.5-0.7-1-0.7-1.7c0-0.7,0.2-1.3,0.7-1.7
		c0.4-0.5,1-0.7,1.7-0.7c0.6,0,1,0.1,1.4,0.4c0.3,0.3,0.6,0.6,0.7,1c0,0.1,0,0.1-0.1,0.1L42,24.5c-0.1,0-0.1,0-0.1-0.1
		c-0.1-0.2-0.2-0.4-0.4-0.5c-0.2-0.2-0.4-0.2-0.7-0.2c-0.4,0-0.7,0.1-0.9,0.4c-0.2,0.3-0.3,0.6-0.3,1.1s0.1,0.8,0.3,1.1
		C40.1,26.5,40.4,26.6,40.8,26.6z"/>
	<path d="M47,26l0.7,0.2c0.1,0,0.1,0.1,0.1,0.2c-0.2,0.4-0.4,0.7-0.8,0.9c-0.4,0.2-0.8,0.4-1.3,0.4c-0.7,0-1.2-0.2-1.7-0.7
		c-0.4-0.5-0.6-1-0.6-1.7c0-0.7,0.2-1.3,0.6-1.7c0.4-0.5,1-0.7,1.7-0.7c0.7,0,1.2,0.2,1.6,0.7c0.4,0.5,0.6,1,0.6,1.7l0,0.3h-3.5
		c0,0.4,0.2,0.7,0.4,0.9c0.2,0.2,0.5,0.3,0.9,0.3c0.5,0,0.9-0.2,1.1-0.6C46.9,26,46.9,26,47,26z M45.7,23.6c-0.3,0-0.6,0.1-0.8,0.3
		c-0.2,0.2-0.4,0.5-0.4,0.8H47c0-0.3-0.2-0.6-0.4-0.8C46.4,23.7,46.1,23.6,45.7,23.6z"/>
</g>
<g>
	<path class="st2" d="M11,18l0-6.8c0-0.1,0.1-0.2,0.2-0.2H18c0.1,0,0.2,0.1,0.2,0.2V18c0,0.1-0.1,0.2-0.2,0.2h-6.8
		C11.1,18.2,11,18.1,11,18z"/>
	<path class="st2" d="M11.1,11h6.9c0.1,0,0.1,0.1,0.1,0.1v6.9c0,0.1-0.1,0.1-0.1,0.1h-6.9c-0.1,0-0.1-0.1-0.1-0.1l0-6.9
		C11,11.1,11.1,11,11.1,11z M18.1,11l-6.9,0c-0.1,0-0.1,0.1-0.1,0.1v6.9c0,0.1,0.1,0.1,0.1,0.1h6.9c0.1,0,0.1-0.1,0.1-0.1v-6.9
		C18.2,11.1,18.2,11,18.1,11z"/>
</g>
</svg>
