<?xml version="1.0" encoding="utf-8"?>
<!-- Generator: Adobe Illustrator 17.1.0, SVG Export Plug-In . SVG Version: 6.00 Build 0)  -->
<!DOCTYPE svg PUBLIC "-//W3C//DTD SVG 1.1//EN" "http://www.w3.org/Graphics/SVG/1.1/DTD/svg11.dtd">
<svg version="1.1" id="Layer_1" xmlns="http://www.w3.org/2000/svg" xmlns:xlink="http://www.w3.org/1999/xlink" x="0px" y="0px"
	 viewBox="0 0 233.2 63.5" enable-background="new 0 0 233.2 63.5" xml:space="preserve">
<polygon fill="#626262" points="0,2 0,61.5 12,61.5 12,13.5 51.3,61.5 69.2,61.5 69.2,2 57.5,2 57.5,51.3 18.2,2 "/>
<path fill="#626262" d="M126.7,2c23.2,0,22.6,19.1,22.6,19.1c0,17-14,18.1-14,18.1l15.8,22.3h-13.8L122.3,40H93v21.5H81.3V2H126.7z
	 M93,29h36c0,0,8.3,0.9,8.3-7.8s-8.3-8.2-8.3-8.2H93V29z"/>
<path fill="#626262" d="M227.7,13.8c0,0-11.4-13.8-32.8-13.8s-39.5,12.7-39.5,31.8s18.2,31.8,38.3,31.8S233.2,54,233.2,29l-41.8,0.2
	V40h26c0,0-2.7,12.3-23.1,12.3s-26.9-12.2-26.9-20.6s7.2-20.3,26.9-20.3s21.6,8.2,21.6,8.2L227.7,13.8z"/>
</svg>
